<svg width="246" height="46" viewBox="0 0 246 46" fill="none" xmlns="http://www.w3.org/2000/svg">
<path d="M1.504 29.64C1.504 27.464 2.4 25.6933 4.192 24.328C6.00533 22.9627 8.37333 22.28 11.296 22.28C14.24 22.28 16.64 22.9947 18.496 24.424C20.3733 25.8533 21.312 27.3467 21.312 28.904C21.312 29.096 21.2373 29.2667 21.088 29.416C20.96 29.544 20.8107 29.608 20.64 29.608H14.24C13.7493 29.608 13.3013 29.4267 12.896 29.064C12.4907 28.7013 11.9467 28.52 11.264 28.52C10.24 28.52 9.728 28.8187 9.728 29.416C9.728 29.736 9.97333 30.0027 10.464 30.216C10.976 30.4293 11.9147 30.6213 13.28 30.792C16.4587 31.1973 18.72 31.944 20.064 33.032C21.4293 34.0987 22.112 35.7307 22.112 37.928C22.112 40.104 21.1093 41.8853 19.104 43.272C17.12 44.6373 14.5173 45.32 11.296 45.32C8.07467 45.32 5.54667 44.6587 3.712 43.336C1.87733 42.0133 0.96 40.4027 0.96 38.504C0.96 38.312 1.024 38.152 1.152 38.024C1.30133 37.8747 1.472 37.8 1.664 37.8H7.744C8.192 37.8 8.68267 38.0133 9.216 38.44C9.77067 38.8667 10.528 39.08 11.488 39.08C13.088 39.08 13.888 38.7813 13.888 38.184C13.888 37.8 13.6 37.512 13.024 37.32C12.448 37.1067 11.36 36.8933 9.76 36.68C4.256 35.9547 1.504 33.608 1.504 29.64ZM32.1505 22.6H39.0945C39.8625 22.6 40.3425 22.952 40.5345 23.656L47.6705 44.072C47.6918 44.136 47.7025 44.2427 47.7025 44.392C47.7025 44.52 47.6278 44.6587 47.4785 44.808C47.3505 44.936 47.1905 45 46.9985 45H41.0785C40.4385 45 40.0225 44.7333 39.8305 44.2L39.0625 42.088H32.1825L31.4145 44.2C31.2225 44.7333 30.8065 45 30.1665 45H24.2465C24.0545 45 23.8838 44.936 23.7345 44.808C23.6065 44.6587 23.5425 44.52 23.5425 44.392C23.5425 44.2427 23.5532 44.136 23.5745 44.072L30.7105 23.656C30.9025 22.952 31.3825 22.6 32.1505 22.6ZM33.8145 35.848H37.4305L35.6065 29.896L33.8145 35.848ZM64.2835 22.6H70.2355C70.4275 22.6 70.5875 22.6747 70.7155 22.824C70.8648 22.952 70.9395 23.08 70.9395 23.208C70.9395 23.336 70.9288 23.4427 70.9075 23.528L64.8915 43.944C64.6995 44.648 64.2195 45 63.4515 45H56.1555C55.3875 45 54.9075 44.648 54.7155 43.944L48.6995 23.528C48.6782 23.4427 48.6675 23.336 48.6675 23.208C48.6675 23.08 48.7315 22.952 48.8595 22.824C49.0088 22.6747 49.1795 22.6 49.3715 22.6H55.3235C56.0915 22.6 56.5715 22.952 56.7635 23.656L59.8035 35.56L62.8435 23.656C63.0355 22.952 63.5155 22.6 64.2835 22.6ZM81.1663 38.76H91.0223C91.2569 38.76 91.4596 38.8453 91.6303 39.016C91.8009 39.1867 91.8863 39.3893 91.8863 39.624V44.136C91.8863 44.3707 91.8009 44.5733 91.6303 44.744C91.4596 44.9147 91.2569 45 91.0223 45H74.3503C74.1156 45 73.9129 44.9147 73.7423 44.744C73.5716 44.5733 73.4863 44.3707 73.4863 44.136V23.464C73.4863 23.2293 73.5716 23.0267 73.7423 22.856C73.9129 22.6853 74.1156 22.6 74.3503 22.6H90.7663C91.0009 22.6 91.2036 22.6853 91.3743 22.856C91.5449 23.0267 91.6303 23.2293 91.6303 23.464V27.976C91.6303 28.2107 91.5449 28.4133 91.3743 28.584C91.2036 28.7547 91.0009 28.84 90.7663 28.84H81.1663V30.856H90.0623C90.2969 30.856 90.4996 30.9413 90.6703 31.112C90.8409 31.2827 90.9263 31.4853 90.9263 31.72V35.88C90.9263 36.1147 90.8409 36.3173 90.6703 36.488C90.4996 36.6587 90.2969 36.744 90.0623 36.744H81.1663V38.76ZM113.146 38.44H122.01C122.244 38.44 122.447 38.5253 122.618 38.696C122.788 38.8667 122.874 39.0693 122.874 39.304V44.136C122.874 44.3707 122.788 44.5733 122.618 44.744C122.447 44.9147 122.244 45 122.01 45H105.882C105.647 45 105.444 44.9147 105.274 44.744C105.103 44.5733 105.018 44.3707 105.018 44.136V23.464C105.018 23.2293 105.103 23.0267 105.274 22.856C105.444 22.6853 105.647 22.6 105.882 22.6H112.282C112.516 22.6 112.719 22.6853 112.89 22.856C113.06 23.0267 113.146 23.2293 113.146 23.464V38.44ZM133.16 45H126.632C126.397 45 126.194 44.9147 126.024 44.744C125.853 44.5733 125.768 44.3707 125.768 44.136V23.464C125.768 23.2293 125.853 23.0267 126.024 22.856C126.194 22.6853 126.397 22.6 126.632 22.6H133.16C133.394 22.6 133.597 22.6853 133.768 22.856C133.938 23.0267 134.024 23.2293 134.024 23.464V44.136C134.024 44.3707 133.938 44.5733 133.768 44.744C133.597 44.9147 133.394 45 133.16 45ZM152.19 22.6H158.142C158.334 22.6 158.494 22.6747 158.622 22.824C158.771 22.952 158.846 23.08 158.846 23.208C158.846 23.336 158.835 23.4427 158.814 23.528L152.798 43.944C152.606 44.648 152.126 45 151.358 45H144.062C143.294 45 142.814 44.648 142.622 43.944L136.606 23.528C136.584 23.4427 136.574 23.336 136.574 23.208C136.574 23.08 136.638 22.952 136.766 22.824C136.915 22.6747 137.086 22.6 137.278 22.6H143.23C143.998 22.6 144.478 22.952 144.67 23.656L147.71 35.56L150.75 23.656C150.942 22.952 151.422 22.6 152.19 22.6ZM169.073 38.76H178.929C179.163 38.76 179.366 38.8453 179.537 39.016C179.707 39.1867 179.793 39.3893 179.793 39.624V44.136C179.793 44.3707 179.707 44.5733 179.537 44.744C179.366 44.9147 179.163 45 178.929 45H162.257C162.022 45 161.819 44.9147 161.649 44.744C161.478 44.5733 161.393 44.3707 161.393 44.136V23.464C161.393 23.2293 161.478 23.0267 161.649 22.856C161.819 22.6853 162.022 22.6 162.257 22.6H178.673C178.907 22.6 179.11 22.6853 179.281 22.856C179.451 23.0267 179.537 23.2293 179.537 23.464V27.976C179.537 28.2107 179.451 28.4133 179.281 28.584C179.11 28.7547 178.907 28.84 178.673 28.84H169.073V30.856H177.969C178.203 30.856 178.406 30.9413 178.577 31.112C178.747 31.2827 178.833 31.4853 178.833 31.72V35.88C178.833 36.1147 178.747 36.3173 178.577 36.488C178.406 36.6587 178.203 36.744 177.969 36.744H169.073V38.76ZM183.067 29.64C183.067 27.464 183.963 25.6933 185.755 24.328C187.568 22.9627 189.936 22.28 192.859 22.28C195.803 22.28 198.203 22.9947 200.059 24.424C201.936 25.8533 202.875 27.3467 202.875 28.904C202.875 29.096 202.8 29.2667 202.651 29.416C202.523 29.544 202.373 29.608 202.203 29.608H195.803C195.312 29.608 194.864 29.4267 194.459 29.064C194.053 28.7013 193.509 28.52 192.827 28.52C191.803 28.52 191.291 28.8187 191.291 29.416C191.291 29.736 191.536 30.0027 192.027 30.216C192.539 30.4293 193.477 30.6213 194.843 30.792C198.021 31.1973 200.283 31.944 201.627 33.032C202.992 34.0987 203.675 35.7307 203.675 37.928C203.675 40.104 202.672 41.8853 200.667 43.272C198.683 44.6373 196.08 45.32 192.859 45.32C189.637 45.32 187.109 44.6587 185.275 43.336C183.44 42.0133 182.523 40.4027 182.523 38.504C182.523 38.312 182.587 38.152 182.715 38.024C182.864 37.8747 183.035 37.8 183.227 37.8H189.307C189.755 37.8 190.245 38.0133 190.779 38.44C191.333 38.8667 192.091 39.08 193.051 39.08C194.651 39.08 195.451 38.7813 195.451 38.184C195.451 37.8 195.163 37.512 194.587 37.32C194.011 37.1067 192.923 36.8933 191.323 36.68C185.819 35.9547 183.067 33.608 183.067 29.64Z" fill="#110F0A"/>
<path d="M211.8 44.7039H230.078C231.174 44.7047 232.258 44.4114 233.254 43.8444C234.25 43.2775 235.135 42.4502 235.848 41.4195L245.541 27.4259C245.744 27.1334 245.886 26.7836 245.954 26.4073C246.022 26.031 246.014 25.6399 245.931 25.2682C245.848 24.8966 245.693 24.5559 245.478 24.2762C245.264 23.9965 244.997 23.7863 244.702 23.6642L240.963 22.1219C240.059 21.7584 239.097 21.6761 238.161 21.8824C237.226 22.0887 236.346 22.5771 235.599 23.3045L229.548 29.2927L228.375 26.3891C227.747 24.8239 226.778 23.5076 225.576 22.5893C224.375 21.671 222.989 21.1874 221.577 21.1932H211.8C209.704 21.1932 208 23.3021 208 25.8954V40.0018C208 42.595 209.704 44.7039 211.8 44.7039ZM211.8 25.8954H221.577C223.027 25.8954 224.328 26.8899 224.976 28.4933L225.826 30.5975H217.5V35.2996H228.926C229.219 35.2949 229.506 35.2063 229.766 35.041L229.772 35.0387L229.779 35.034H229.785L229.789 35.0316H229.796L229.798 35.0293C229.815 35.0363 229.804 35.0269 229.804 35.0269C229.823 35.0269 229.808 35.0246 229.808 35.0246H229.81L229.814 35.0222L229.819 35.0199L229.823 35.0175L229.827 35.0152L229.833 35.0128L229.836 35.0105C229.842 35.0105 229.838 35.0081 229.84 35.0081L229.846 35.0034L229.85 35.0011L229.853 34.9987L229.859 34.9964L229.863 34.994H229.865L229.869 34.9917H229.871L229.874 34.9893L229.878 34.987C229.895 34.9846 229.884 34.9846 229.884 34.9846L229.888 34.9822C229.961 34.9276 230.031 34.8663 230.097 34.7989L237.974 27.0004C238.472 26.5113 239.158 26.3585 239.76 26.6077L240.818 27.045L232.966 38.3842C232.604 38.8918 232.16 39.2985 231.662 39.5773C231.164 39.8562 230.624 40.0009 230.078 40.0018H211.8V25.8954V25.8954ZM234.6 0.0335609H234.567C234.258 0.0382631 232.656 0.125253 230.8 1.69107C228.993 0.167572 227.429 0.0453161 227.06 0.0359118L227.003 0.0335609H226.996C225.474 0.0335609 224.041 0.769447 222.97 2.0978C221.894 3.43086 221.3 5.20122 221.3 7.08678C221.3 8.97234 221.894 10.7427 222.936 12.0334L229.422 20.4644C229.601 20.6936 229.815 20.8759 230.051 21.0004C230.288 21.1249 230.543 21.1889 230.8 21.1887C231.057 21.1885 231.312 21.124 231.548 20.9991C231.785 20.8743 231.999 20.6916 232.177 20.462L238.629 12.0734C239.707 10.7427 240.299 8.97234 240.299 7.08678C240.299 5.20122 239.705 3.43086 238.631 2.10015C238.104 1.44313 237.476 0.922169 236.785 0.567431C236.093 0.212693 235.352 0.0312332 234.603 0.0335609H234.6ZM236.5 7.08678C236.5 7.71451 236.302 8.30463 235.909 8.7913L230.8 15.4331L225.656 8.74898C225.297 8.30463 225.1 7.71451 225.1 7.08678C225.1 6.45904 225.297 5.86892 225.658 5.42222C226.002 4.98975 226.47 4.74297 226.96 4.7357C227.007 4.73806 227.914 4.81094 228.987 5.87598C229.141 6.02879 229.297 6.20277 229.456 6.39791L230.8 8.06012L232.143 6.39791C232.303 6.20277 232.458 6.02879 232.612 5.87598C233.617 4.87677 234.467 4.75216 234.611 4.73806C234.859 4.738 235.104 4.79864 235.332 4.91647C235.561 5.0343 235.768 5.20699 235.943 5.42457C236.302 5.86892 236.5 6.45904 236.5 7.08678Z" fill="#110F0A"/>
</svg>
